<svg width="64" height="64" viewBox="0 0 113 112" fill="none" xmlns="http://www.w3.org/2000/svg">
  <g stroke="#0e0e10" stroke-width="2" stroke-linejoin="round" fill="#FFF7D6">
    <path d="M62.9362 78.9906C72.7691 75.0178 76.9509 62.418 72.2763 50.8481C67.6018 39.2782 55.8412 33.1196 46.0082 37.0923C36.1753 41.0651 31.9936 53.6649 36.6681 65.2348C41.3426 76.8047 53.1033 82.9633 62.9362 78.9906Z"/>
    <path d="M43.9074 63.3967C45.518 60.9685 43.1633 56.6735 38.648 53.8036C34.1328 50.9336 29.1668 50.5755 27.5562 53.0037C25.9456 55.4319 28.3003 59.7269 32.8156 62.5968C37.3308 65.4667 42.2968 65.8248 43.9074 63.3967Z"/>
    <path d="M31.906 27.7112C31.0779 25.6616 28.7102 24.6854 26.6177 25.5308C24.5252 26.3762 23.5002 28.7231 24.3283 30.7728L31.3255 48.0916C32.1536 50.1412 34.5213 51.1174 36.6138 50.272C38.7063 49.4265 39.7313 47.0796 38.9032 45.03L31.906 27.7112Z"/>
    <path d="M40.2132 21.4262C39.4487 19.5339 37.1359 18.684 35.0475 19.5278C32.959 20.3716 31.8857 22.5896 32.6503 24.4818L40.033 42.7547C40.7975 44.6469 43.1103 45.4968 45.1987 44.6531C47.2872 43.8093 48.3604 41.5913 47.5959 39.6991L40.2132 21.4262Z"/>
    <path d="M51.6013 20.4813C50.7732 18.4317 48.4055 17.4555 46.313 18.3009C44.2205 19.1464 43.1955 21.4933 44.0236 23.5429L51.0208 40.8617C51.8489 42.9113 54.2166 43.8875 56.3091 43.0421C58.4016 42.1966 59.4266 39.8497 58.5985 37.8001L51.6013 20.4813Z"/>
    <path d="M59.9098 24.3194L59.6572 24.4214C57.9832 25.0978 57.1631 26.9753 57.8256 28.615L63.4234 42.47C64.0859 44.1097 65.98 44.8907 67.654 44.2143L67.9066 44.1123C69.5806 43.4359 70.4007 41.5584 69.7382 39.9187L64.1404 26.0637C63.4779 24.424 61.5838 23.643 59.9098 24.3194Z"/>
    <path d="M73.1631 67.5016L47.9041 77.7069C46.5091 78.2705 45.8257 79.8351 46.3778 81.2016L50.3762 91.098C50.9283 92.4644 52.5067 93.1152 53.9017 92.5516L79.1607 82.3463C80.5558 81.7827 81.2391 80.2181 80.687 78.8517L76.6886 68.9552C76.1365 67.5888 74.5581 66.938 73.1631 67.5016Z" fill="#ff7a1f"/>
  </g>
  <line x1="49.8289" y1="88" x2="79.1397" y2="76" stroke="#0e0e10" stroke-width="1.2"/>
  <circle cx="56" cy="58" r="2" fill="#ffd970" stroke="#8a6320" stroke-width="0.6"/>
</svg>
